<?xml version="1.0" encoding="utf-8"?>
<!-- Generator: Adobe Illustrator 17.1.0, SVG Export Plug-In . SVG Version: 6.00 Build 0)  -->
<!DOCTYPE svg PUBLIC "-//W3C//DTD SVG 1.1//EN" "http://www.w3.org/Graphics/SVG/1.1/DTD/svg11.dtd">
<svg version="1.1" id="Layer_1" xmlns="http://www.w3.org/2000/svg" xmlns:xlink="http://www.w3.org/1999/xlink" x="0px" y="0px"
	 viewBox="0 0 62.434 62.361" enable-background="new 0 0 62.434 62.361" xml:space="preserve">
<path fill="#999999" d="M32.184,3.455V15.41c2.883-0.076,5.726-0.49,8.479-1.225C38.553,10.146,35.692,6.496,32.184,3.455
	L32.184,3.455z M13.553,53.465c4.102,3.262,9.123,5.414,14.613,6.006c-1.355-1.254-2.611-2.598-3.762-4.02
	c0.596-0.234,1.162-0.525,1.695-0.865c1.277,1.541,2.688,2.986,4.221,4.316c0-8.979,0-17.803,0-26.791H17.682
	c0.039,1.51,0.17,3.006,0.389,4.48c-0.619,0.172-1.213,0.402-1.777,0.686c-0.322-2.002-0.486-4.041-0.486-6.098
	c0-3.42,0.455-6.789,1.328-10.025c0.539,0.309,1.121,0.551,1.734,0.713c-0.711,2.713-1.115,5.524-1.188,8.381h12.639V17.277
	c-0.904-0.02-1.809-0.072-2.707-0.156c0.191-0.584,0.311-1.201,0.346-1.84c0.783,0.068,1.57,0.113,2.361,0.133V3.455
	c-1.957,1.697-3.715,3.584-5.25,5.621c-0.498-0.373-1.047-0.684-1.631-0.92c1.402-1.885,2.984-3.65,4.73-5.268
	c-6.139,0.662-11.691,3.273-16.027,7.205c0.74,0.449,1.494,0.871,2.26,1.264c-0.301,0.541-0.533,1.123-0.69,1.736
	c-1.004-0.512-1.986-1.066-2.945-1.666c-3.08,3.193-5.422,7.105-6.746,11.461c-1.326,0.521-2.49,1.363-3.4,2.432
	c1.191-6.262,4.254-11.857,8.582-16.188C14.848,3.49,22.643,0,31.252,0s16.406,3.49,22.049,9.133
	c5.643,5.642,9.133,13.437,9.133,22.047c0,8.611-3.49,16.406-9.133,22.049c-5.643,5.643-13.439,9.133-22.049,9.133
	s-16.404-3.49-22.049-9.133c-4.496-4.496-7.627-10.363-8.711-16.916c0.883,1.088,2.029,1.957,3.34,2.508
	c1.09,3.918,2.996,7.494,5.523,10.535C10.608,50.863,12.02,52.246,13.553,53.465L13.553,53.465z M32.184,45.086
	c3.162,0.082,6.289,0.551,9.314,1.391c0.297-0.644,0.572-1.299,0.83-1.959c0.601,0.16,1.219,0.281,1.851,0.361
	c-0.275,0.723-0.572,1.436-0.889,2.141c2.938,0.971,5.762,2.295,8.406,3.955c4.959-5.121,8.012-12.102,8.012-19.795
	c0-7.693-3.053-14.672-8.014-19.795c-2.641,1.658-5.465,2.982-8.402,3.953c0.316,0.705,0.613,1.42,0.889,2.145
	c-0.633,0.078-1.252,0.201-1.856,0.361c-0.26-0.66-0.537-1.315-0.832-1.959c-3.027,0.838-6.152,1.309-9.311,1.391V45.086
	L32.184,45.086z M50.317,52.308c-2.473-1.508-5.105-2.713-7.838-3.596c-2.045,4.004-4.789,7.654-8.139,10.758
	C40.453,58.812,45.989,56.215,50.317,52.308L50.317,52.308z M40.664,48.178c-2.756-0.734-5.602-1.15-8.48-1.227v11.951
	C35.696,55.859,38.557,52.211,40.664,48.178L40.664,48.178z M42.483,13.65c2.732-0.883,5.363-2.088,7.836-3.596
	c-4.33-3.91-9.865-6.508-15.984-7.166C37.692,5.996,40.44,9.646,42.483,13.65L42.483,13.65z"/>
<path fill-rule="evenodd" clip-rule="evenodd" fill="#549CD4" d="M21.846,37.656c-4.711-0.607-9.022,2.719-9.629,7.43
	c-0.609,4.711,2.719,9.022,7.43,9.631c4.711,0.608,9.021-2.719,9.629-7.43C29.883,42.576,26.557,38.264,21.846,37.656z
	 M24.633,49.982c-0.826,1.006-1.832,1.637-3.348,1.637c-2.295,0-3.856-1.381-4.457-3.438h-0.69c-0.42,0-0.766-0.33-0.766-0.75
	c0-0.42,0.346-0.766,0.766-0.766h0.449c-0.014-0.15-0.014-0.299-0.014-0.465c0-0.18,0-0.375,0.014-0.555h-0.449
	c-0.42,0-0.766-0.33-0.766-0.75c0-0.422,0.346-0.766,0.766-0.766h0.734c0.615-1.982,2.146-3.377,4.367-3.377
	c1.56,0,2.492,0.555,3.271,1.381c0.15,0.148,0.316,0.436,0.316,0.779c0,0.602-0.512,1.082-1.111,1.082
	c-0.391,0-0.645-0.18-0.795-0.346c-0.48-0.541-0.99-0.842-1.726-0.842c-0.885,0-1.529,0.496-1.906,1.322h2.086
	c0.422,0,0.766,0.344,0.766,0.766c0,0.42-0.344,0.75-0.766,0.75H18.93c-0.016,0.164-0.016,0.344-0.016,0.525
	c0,0.18,0,0.344,0.016,0.494h2.445c0.422,0,0.766,0.346,0.766,0.766c0,0.42-0.344,0.75-0.766,0.75H19.26
	c0.375,0.887,1.066,1.381,2.025,1.381c0.752,0,1.23-0.315,1.756-0.916c0.18-0.209,0.436-0.359,0.781-0.359
	c0.57,0,1.035,0.465,1.035,1.035C24.858,49.594,24.739,49.848,24.633,49.982z"/>
<g>
	<path fill-rule="evenodd" clip-rule="evenodd" fill="#549CD4" d="M48.781,28.339c0-2.043-3.079-1.732-4.058-1.732v3.462
		C45.703,30.069,48.78,30.298,48.781,28.339z"/>
	<path fill-rule="evenodd" clip-rule="evenodd" fill="#549CD4" d="M45.909,18.449c-7.029,0-12.731,5.701-12.731,12.73
		c0,7.031,5.701,12.731,12.731,12.731c7.031,0,12.73-5.699,12.73-12.731C58.639,24.15,52.94,18.449,45.909,18.449z M53.018,34.066
		c-0.254,2.738-2.297,3.472-5.214,3.639l-0.001,2.876l-1.736,0l0-2.837c-0.45,0.001-0.91-0.004-1.387-0.013l0,2.851l-1.734,0
		L42.945,37.7c-0.406-0.003-0.819-0.01-1.24-0.01h-2.259l0.344-2.07c0,0,1.285,0.02,1.263,0c0.491-0.001,0.622-0.354,0.653-0.574
		v-4.546c0.064,0,0.126,0,0.184,0c-0.072-0.01-0.135-0.012-0.184-0.012l-0.001-3.245c-0.066-0.352-0.296-0.76-0.998-0.76
		c0.021-0.023-1.261,0.001-1.261,0.001l0-1.852l2.394,0.001v0.008c0.36,0,0.729-0.007,1.105-0.015l0-2.848l1.734,0l0,2.791
		c0.464-0.009,0.929-0.018,1.386-0.018l0-2.774h1.736l0,2.848c2.24,0.196,4.015,0.885,4.213,2.938
		c0.147,1.503-0.483,2.405-1.489,2.917C52.184,30.878,53.223,31.862,53.018,34.066z"/>
	<path fill-rule="evenodd" clip-rule="evenodd" fill="#549CD4" d="M44.723,31.817l-0.001,3.817c1.177-0.001,4.867,0.244,4.867-1.909
		C49.588,31.479,45.899,31.817,44.723,31.817z"/>
</g>
<path fill-rule="evenodd" clip-rule="evenodd" fill="#549CD4" d="M14.264,29.896c-0.551-3.92-4.174-6.65-8.094-6.1
	c-3.92,0.551-6.65,4.174-6.1,8.094c0.551,3.92,4.176,6.65,8.094,6.1C12.084,37.439,14.815,33.816,14.264,29.896z M10.689,34.545
	H3.494H3.483l0.772-2.731l-1.082,0.381l0.295-1.154l1.117-0.393l1.319-4.664h2.81l-1.008,3.567l1.16-0.408l-0.295,1.154l-1.194,0.42
	L6.76,32.891h4.402L10.689,34.545z"/>
<path fill-rule="evenodd" clip-rule="evenodd" fill="#549CD4" d="M20.571,11.973v1.39c0,0.762,0.584,1.424,1.384,1.302
	c0.47-0.667,0.063-1.7-0.944-2.281c1.266,0.507,1.525,1.425,1.388,2.187c-0.007,0.04-0.017,0.08-0.026,0.119
	c0.231-0.155,0.341-0.304,0.444-0.576C23.181,13.135,22.455,12.04,20.571,11.973z"/>
<g>
	<path fill="none" d="M22.415,11.463c-0.39-0.199-0.939-0.274-1.57-0.276c-0.09,0-0.181,0.002-0.274,0.004h-0.953h-1.069v5.302
		H18.09v0.79h0.459v1.165h0.953h0.116h0.953v-1.165h0.42v-0.79h-0.42v-0.858l0.415,0.001c0.83,0,1.557,0.061,2.186-0.758
		c0.244-0.361,0.394-0.783,0.435-1.212C23.689,12.801,23.329,11.91,22.415,11.463z"/>
	<path fill="#549CD4" d="M21.465,9.185c-3.141-0.406-6.014,1.812-6.42,4.953c-0.404,3.141,1.812,6.014,4.953,6.42
		c3.141,0.404,6.016-1.812,6.42-4.953C26.825,12.465,24.606,9.59,21.465,9.185z M18.549,11.191h1.069h0.953
		c0.093-0.003,0.184-0.004,0.274-0.004c0.631,0.002,1.18,0.076,1.57,0.276c0.914,0.448,1.274,1.338,1.192,2.205
		c-0.041,0.429-0.191,0.851-0.435,1.212c-0.629,0.819-1.356,0.758-2.186,0.758l-0.415-0.001v0.858h0.42v0.79h-0.42v1.165h-0.953
		h-0.116h-0.953v-1.165H18.09v-0.79h0.459"/>
</g>
</svg>
