<?xml version="1.0" encoding="utf-8"?>
<!-- Generator: Adobe Illustrator 17.1.0, SVG Export Plug-In . SVG Version: 6.00 Build 0)  -->
<!DOCTYPE svg PUBLIC "-//W3C//DTD SVG 1.1//EN" "http://www.w3.org/Graphics/SVG/1.1/DTD/svg11.dtd">
<svg version="1.1" id="Layer_1" xmlns="http://www.w3.org/2000/svg" xmlns:xlink="http://www.w3.org/1999/xlink" x="0px" y="0px"
	 viewBox="0 0 62.296 62.363" enable-background="new 0 0 62.296 62.363" xml:space="preserve">
<path fill="#999999" d="M7.009,5.576h48.278c0.791,0,1.432,0.643,1.432,1.434v7.336h2.713V2.863H2.864v52.846h4.145h9.431h29.417
	h9.431h4.145v-11.48h-2.713v7.336c0,0.791-0.641,1.432-1.432,1.432H7.009c-0.791,0-1.432-0.641-1.432-1.432V7.01
	C5.577,6.219,6.218,5.576,7.009,5.576L7.009,5.576z M56.719,58.572v2.358c0,0.791-0.641,1.434-1.432,1.434h-9.431
	c-0.791,0-1.432-0.643-1.432-1.434v-2.358H17.872v2.358c0,0.791-0.642,1.434-1.432,1.434H7.009c-0.791,0-1.432-0.643-1.432-1.434
	v-2.358H1.432C0.641,58.572,0,57.932,0,57.141V1.432C0,0.641,0.641,0,1.432,0h59.433c0.79,0,1.432,0.641,1.432,1.432v14.346v5.711
	v15.598v5.711v14.344c0,0.791-0.641,1.432-1.432,1.432H56.719L56.719,58.572z M47.288,58.572v0.926h6.567v-0.926H47.288
	L47.288,58.572z M8.441,58.572v0.926h6.568v-0.926H8.441L8.441,58.572z M59.432,35.652V22.92h-2.713v12.732H59.432L59.432,35.652z
	 M53.856,35.652V22.92h-3.244c-0.791,0-1.432-0.641-1.432-1.432v-5.711c0-0.791,0.641-1.432,1.432-1.432h3.244V8.439H8.441v41.693
	h45.415v-5.904h-3.244c-0.791,0-1.432-0.641-1.432-1.432v-5.711c0-0.791,0.641-1.434,1.432-1.434H53.856L53.856,35.652z
	 M59.432,38.518h-7.389v2.848h7.389V38.518L59.432,38.518z M59.432,17.209h-7.389v2.848h7.389V17.209L59.432,17.209z"/>
<path fill="#549CD4" d="M22.105,21.826v-1.58c0-0.791,0.641-1.432,1.432-1.432c0.791,0,1.432,0.641,1.432,1.432v1.58
	c1.52,0.291,2.881,1.037,3.936,2.092l0.003-0.002c1.375,1.375,2.225,3.273,2.225,5.371c0,2.094-0.851,3.99-2.225,5.365l-0.003,0.002
	l0.003,0.004c-1.375,1.375-3.274,2.225-5.372,2.225c-2.098,0-3.997-0.85-5.372-2.225c-1.375-1.375-2.225-3.274-2.225-5.371
	c0-2.098,0.85-3.996,2.225-5.371c0.028-0.029,0.058-0.057,0.088-0.082C19.296,22.824,20.626,22.109,22.105,21.826L22.105,21.826z
	 M23.537,26.557c0.753,0,1.436,0.307,1.93,0.801c0.494,0.494,0.799,1.176,0.799,1.93c0,0.752-0.306,1.435-0.799,1.93
	c-0.494,0.494-1.177,0.799-1.93,0.799c-0.754,0-1.436-0.305-1.93-0.799c-0.494-0.494-0.799-1.176-0.799-1.93
	c0-0.754,0.306-1.436,0.799-1.93C22.101,26.863,22.784,26.557,23.537,26.557L23.537,26.557z M26.883,25.934
	c-0.852-0.852-2.036-1.381-3.347-1.381c-1.278,0-2.436,0.504-3.283,1.318c-0.02,0.023-0.041,0.047-0.064,0.068
	c-0.856,0.857-1.386,2.041-1.386,3.348c0,1.307,0.53,2.49,1.386,3.346c0.856,0.857,2.039,1.387,3.347,1.387
	c1.307,0,2.491-0.529,3.347-1.387l0.003,0.004c0.854-0.856,1.383-2.041,1.383-3.35c0-1.307-0.53-2.49-1.386-3.348l0.003-0.002
	L26.883,25.934L26.883,25.934z"/>
<path fill="#549CD4" d="M40.163,23.486c0.456,0,0.869-0.185,1.168-0.484c0.298-0.299,0.483-0.711,0.483-1.168
	c0-0.459-0.183-0.871-0.478-1.166l-0.002-0.002l-0.003,0.002c-0.298-0.299-0.712-0.482-1.168-0.482
	c-0.459,0-0.872,0.182-1.167,0.477l-0.003,0.004l0.003,0.002c-0.298,0.299-0.483,0.711-0.483,1.166c0,0.457,0.185,0.869,0.483,1.168
	l0.054,0.057C39.34,23.324,39.732,23.486,40.163,23.486L40.163,23.486z M41.38,26.184v1.631c0.562,0.387,0.931,1.035,0.931,1.768
	v12.242c0,1.188-0.961,2.148-2.148,2.148c-1.186,0-2.147-0.961-2.147-2.148V29.582c0-0.732,0.368-1.381,0.931-1.768v-1.633
	c-0.711-0.199-1.353-0.572-1.877-1.066c-0.034-0.027-0.066-0.057-0.097-0.088c-0.817-0.816-1.323-1.945-1.323-3.193
	c0-1.246,0.506-2.373,1.323-3.191l0.002,0.004c0.82-0.818,1.947-1.326,3.189-1.326c1.246,0,2.375,0.506,3.192,1.322l-0.003,0.004
	c0.818,0.818,1.325,1.947,1.325,3.188c0,1.248-0.506,2.377-1.322,3.193C42.815,25.566,42.137,25.971,41.38,26.184L41.38,26.184z"/>
</svg>
