<?xml version="1.0" encoding="utf-8"?>
<!-- Generator: Adobe Illustrator 17.1.0, SVG Export Plug-In . SVG Version: 6.00 Build 0)  -->
<!DOCTYPE svg PUBLIC "-//W3C//DTD SVG 1.1//EN" "http://www.w3.org/Graphics/SVG/1.1/DTD/svg11.dtd">
<svg version="1.1" id="Layer_1" xmlns="http://www.w3.org/2000/svg" xmlns:xlink="http://www.w3.org/1999/xlink" x="0px" y="0px"
	 viewBox="0 0 61.3 62.4" enable-background="new 0 0 61.3 62.4" xml:space="preserve">
<path fill-rule="evenodd" clip-rule="evenodd" fill="#A7ABB1" d="M57.3,25.6c3.3-3.1,2.3-7.5-0.8-6.5c-1.8,0.6,0.1,2.2-1.4,2.6
	c-2.1,0.7-2.3-5,2.4-4.8c4.8,0.2,5.1,6.6,1,10.2c1.7,2.6,2.6,5.6,2.6,8.7c0,5.6-5.5,18.3-7,24.9c-0.5,2.1-6.3,1.6-8.2,1
	c-0.6-0.2-0.9-0.6-1-1.2l-1.4-7.2c-3.6,1.3-6.3,1.7-10.2,1.2l-1.2,6c-0.1,0.5-0.5,1-1,1.1l0,0c-1.9,0.5-7.6,1-8.1-1l0,0l-1.9-6.8
	c-8.3-1.4-12.2-3.3-18.3-8.2c-0.3-0.2-0.5-0.5-0.5-0.9L0,35c-0.3-1.5,1.7-2.5,2.6-1.1c5.7-1.8,7.5-4.4,11.4-8.3l0.1-4.8
	c0.1-1,1.2-1.7,2.2-1.1c0.9,0.5,1.9,1.1,2.9,1.8C30.6,14.4,48.8,15.3,57.3,25.6L57.3,25.6z M18,33.2c4,0,4,6,0,6
	C14,39.2,14,33.2,18,33.2L18,33.2z M14.6,29.1C11,32.7,9.1,35,3.3,36.7L4.8,44c2.5,2,4.6,3.5,7.1,4.6c2.2,1,4.7,1.8,8.1,2.5
	c-0.4-1.5-1.4-3.5,0.3-4c0.8-0.2,1.6,0.2,1.8,1l3.2,11.3l4,0l1.3-6.5c0.4-2.3,3.2-0.3,7.5-0.9c4-0.5,7.1-3.2,7.7-0.7
	c0.5,2.7,1.1,5.3,1.6,8l4,0c1.6-6.1,6.8-18.7,6.8-23.4c0-9.9-10.9-16.2-21.1-16.2c-5.3,0-10.6,0.8-15.5,3.6c0.9,0.9,2.8,2.9,1.1,4
	c-1.8,1.1-1.8-1.4-5.8-4.1c-0.2,4.7,1.7,6.8-0.4,7.3C15.2,31,14.8,30,14.6,29.1L14.6,29.1z M52.9,61.9c-0.2,0-0.4,0-0.6,0L52.9,61.9
	L52.9,61.9z"/>
<path fill-rule="evenodd" clip-rule="evenodd" fill="#549CD5" d="M36.9,0c3.1,0,5.7,2.6,5.7,5.7c0,3.1-2.6,5.7-5.7,5.7
	c-3.1,0-5.7-2.6-5.7-5.7C31.2,2.6,33.8,0,36.9,0L36.9,0z M32.2,25.8c-1.8,0.4-2.5-2.3-0.7-2.8c3.6-0.9,7.4-0.9,10.9,0.1
	c1.8,0.5,1.1,3.2-0.7,2.8C38.6,25,35.3,25,32.2,25.8L32.2,25.8z M52.9,61.9c-0.2,0-0.4,0-0.6,0L52.9,61.9L52.9,61.9z"/>
</svg>
