<?xml version="1.0" encoding="utf-8"?>
<!-- Generator: Adobe Illustrator 17.1.0, SVG Export Plug-In . SVG Version: 6.00 Build 0)  -->
<!DOCTYPE svg PUBLIC "-//W3C//DTD SVG 1.1//EN" "http://www.w3.org/Graphics/SVG/1.1/DTD/svg11.dtd">
<svg version="1.1" id="Layer_1" xmlns="http://www.w3.org/2000/svg" xmlns:xlink="http://www.w3.org/1999/xlink" x="0px" y="0px"
	 viewBox="0 0 72 72" enable-background="new 0 0 72 72" xml:space="preserve">
<path fill="#A7ABB1" d="M59.8,14.6c-2.6-2.9-5.8-5.4-9.4-7.2l0,0.2l-1,3.8l0,0.2c2.8,1.5,5.4,3.4,7.5,5.7c1.5,1.6,2.7,3.4,3.8,5.3
	l0.1,0l3.9-1l0.1,0C63.4,19,61.7,16.7,59.8,14.6z"/>
<path fill="#A7ABB1" d="M64.6,50.4L61,49.5l-0.4-0.1C58,54.1,54.1,58,49.3,60.6l0.1,0.5l0.9,3.5l0.1,0.4l0,0
	c6.3-3.1,11.4-8.2,14.5-14.5L64.6,50.4z"/>
<path fill="#A7ABB1" d="M15.5,55c-1.6-1.7-2.9-3.7-4-5.7l-0.1,0l-3.8,1l-0.1,0c1.4,2.7,3.1,5.2,5.1,7.4c2.6,2.8,5.6,5.2,9,7l0-0.2
	l1-3.8l0-0.1C20,59.1,17.6,57.3,15.5,55z"/>
<path fill="#A7ABB1" d="M22.7,11.4l-0.9-3.5l-0.1-0.5c-6.1,3.1-11.1,8.1-14.2,14.2l0.4,0.1l3.5,0.9l0.5,0.1
	c2.5-4.6,6.3-8.4,10.9-10.9L22.7,11.4z"/>
<path fill="#A7ABB1" d="M21.3,46.8l-4.1,1.1c1.8,2.8,4.2,5.2,7,7l1-4C23.7,49.7,22.4,48.3,21.3,46.8z"/>
<path fill="#A7ABB1" d="M25.3,21.6l-1.1-4.4c-2.8,1.8-5.2,4.2-7,7l4.4,1.1c0,0,0,0,0.1,0.1c1.1-1.4,2.3-2.6,3.8-3.7
	C25.3,21.6,25.3,21.6,25.3,21.6z"/>
<path fill="#A7ABB1" d="M46.8,50.8l1,4c2.8-1.8,5.2-4.2,7-7l-4.1-1.1C49.6,48.3,48.3,49.7,46.8,50.8z"/>
<path fill="#A7ABB1" d="M47.8,17.2l-1.1,4.4c0,0,0,0.1-0.1,0.2c1.4,1,2.7,2.3,3.8,3.7c0.1-0.1,0.1-0.1,0.1-0.1l4.4-1.1
	C53,21.3,50.6,19,47.8,17.2z"/>
<g>
	<path fill="none" d="M19.7,28.4l-4.2-1L10.3,26l-0.4-0.1l-3.5-0.9L6,25l-0.4-0.1c-1.3,3.5-2,7.2-2,11.1c0,3.9,0.7,7.7,2,11.1L6,47
		l0.2,0l3.7-0.9l0.2,0l5.5-1.3l4-1l0.2-0.1C18.6,41.3,18,38.7,18,36c0-1.3,0.1-2.5,0.4-3.7C18.7,30.9,19.1,29.6,19.7,28.4z"/>
	<path fill="#549CD5" d="M21.6,36c0-2.1,0.5-4.2,1.4-6.1c0.5-1,0.5-2.1,0-3.1c-0.3-0.5-1-1.2-1.3-1.4c-0.1-0.1-0.1-0.1-0.1-0.1
		l-4.4-1.1l-5.3-1.4l-0.5-0.1l-3.5-0.9l-0.4-0.1L7,21.5l-0.6-0.1c-0.3-0.1-0.6-0.1-0.9-0.1c-1.5,0-2.8,0.9-3.4,2.4
		C0.7,27.6,0,31.8,0,36c0,4.2,0.7,8.4,2.2,12.4c0.5,1.4,1.9,2.4,3.4,2.4c0.3,0,0.9-0.1,0.9-0.1l1-0.3l0.1,0l3.8-1l0.1,0l5.7-1.5
		l4.1-1.1l0.3-0.1c0,0,1.1-0.9,1.4-1.5c0.5-1,0.5-2.1,0-3.1C22.1,40.2,21.6,38.1,21.6,36z M19.7,43.6l-0.2,0.1l-4,1L10.1,46l-0.2,0
		L6.2,47L6,47l-0.4,0.1c-1.3-3.5-2-7.2-2-11.1c0-3.9,0.7-7.7,2-11.1L6,25l0.4,0.1l3.5,0.9l0.4,0.1l5.2,1.3l4.2,1
		c-0.6,1.2-1,2.6-1.3,3.9C18.1,33.5,18,34.7,18,36C18,38.7,18.6,41.3,19.7,43.6z"/>
</g>
<g>
	<path fill="none" d="M66.2,24.9L66,25l-3.8,0.9l-0.2,0l-5.6,1.4l-4.2,1c0.6,1.2,1,2.6,1.3,3.9c0.3,1.2,0.4,2.4,0.4,3.7
		c0,2.7-0.6,5.3-1.7,7.6l0.2,0.1l4,1l5.6,1.4l0.4,0.1L66,47l0.4,0.1l0,0c1.3-3.5,2-7.2,2-11.1c0-3.9-0.7-7.7-2-11.1L66.2,24.9z"/>
	<path fill="#549CD5" d="M69.8,23.6c-0.5-1.4-1.9-2.4-3.4-2.4c-0.3,0-0.6,0-0.9,0.1L65,21.5l-0.3,0.1l-0.1,0l-3.9,1l-0.1,0l-5.8,1.5
		l-4.4,1.1c0,0,0,0-0.1,0.1c-0.3,0.2-1.1,0.9-1.3,1.4c-0.5,1-0.5,2.1,0,3.1c0.9,1.9,1.4,4,1.4,6.1c0,2.1-0.5,4.1-1.4,6.1
		c-0.5,1-0.5,2.1,0,3.1c0.3,0.6,1.4,1.5,1.4,1.5l0.3,0.1l4.1,1.1l5.8,1.5l0.4,0.1l3.5,0.9l0.4,0.1l0.6,0.1c0,0,0.6,0.1,0.9,0.1
		c1.5,0,2.9-0.9,3.4-2.4c1.4-4,2.2-8.1,2.2-12.4C72,31.8,71.3,27.6,69.8,23.6z M66.4,47.1L66.4,47.1L66,47l-3.5-0.9l-0.4-0.1
		l-5.6-1.4l-4-1l-0.2-0.1c1.1-2.3,1.7-4.9,1.7-7.6c0-1.3-0.1-2.5-0.4-3.7c-0.3-1.4-0.7-2.7-1.3-3.9l4.2-1l5.6-1.4l0.2,0L66,25l0.2,0
		l0.2-0.1c1.3,3.5,2,7.2,2,11.1C68.4,39.9,67.7,43.7,66.4,47.1z"/>
</g>
<g>
	<path fill="none" d="M24.9,5.6L25,6l0.1,0.4l0.9,3.5l0.1,0.4l1.3,5.2l1,4.2c2.3-1.1,4.9-1.7,7.6-1.7c2.7,0,5.3,0.6,7.6,1.7l1-4.2
		l1.3-5.4l0-0.2L47,6.2L47,6l0.1-0.4c-3.5-1.3-7.2-2-11.1-2C32.1,3.6,28.3,4.3,24.9,5.6z"/>
	<path fill="#549CD5" d="M48.4,2.2C44.4,0.7,40.3,0,36,0c-4.3,0-8.4,0.7-12.4,2.2c-1.4,0.5-2.4,1.9-2.4,3.4c0,0.3,0,0.6,0.1,0.9
		L21.5,7l0.1,0.4l0.1,0.5l0.9,3.5l0.1,0.5l1.4,5.3l1.1,4.4c0,0,0.1,0.1,0.1,0.2c0.3,0.3,0.9,1,1.4,1.3c1,0.5,2.1,0.5,3.1,0
		c1.9-0.9,4-1.4,6.1-1.4c2.1,0,4.1,0.5,6.1,1.4c1,0.5,2.1,0.5,3.1,0c0.5-0.2,1.1-0.9,1.4-1.2c0.1-0.1,0.1-0.2,0.1-0.2l1.1-4.4
		l1.5-5.6l0-0.2l1-3.8l0-0.2l0.3-1c0,0,0.1-0.6,0.1-0.9C50.7,4.1,49.8,2.7,48.4,2.2z M47,6L47,6.2l-0.9,3.7l0,0.2l-1.3,5.4l-1,4.2
		C41.3,18.6,38.7,18,36,18c-2.7,0-5.3,0.6-7.6,1.7l-1-4.2L26,10.3l-0.1-0.4l-0.9-3.5L25,6l-0.1-0.4c3.5-1.3,7.2-2,11.1-2
		c3.9,0,7.7,0.7,11.1,2L47,6z"/>
</g>
<g>
	<path fill="none" d="M46.2,62.5l-0.1-0.4l-1.4-5.6l-0.9-3.8l-0.1-0.4C41.3,53.4,38.7,54,36,54c-2.7,0-5.3-0.6-7.6-1.7l-0.1,0.4
		l-0.9,3.8l-1.4,5.6l0,0.2L25,66l0,0.2l-0.1,0.2c3.5,1.3,7.2,2,11.1,2c3.2,0,6.3-0.5,9.2-1.3c0.6-0.2,1.3-0.4,1.9-0.6c0,0,0,0,0,0
		L47,66L46.2,62.5z"/>
	<path fill="#549CD5" d="M50.6,65.6L50.5,65l0,0l-0.1-0.4L49.5,61l-0.1-0.5l-1.5-5.8l-1-4l-0.1-0.4c0,0-0.9-1.1-1.5-1.4
		c-1-0.5-2.1-0.5-3.1,0c-1.9,0.9-4,1.4-6.1,1.4c-2.1,0-4.1-0.5-6.1-1.4c-1-0.5-2.1-0.5-3.1,0c-0.6,0.3-1.5,1.4-1.5,1.4l-0.1,0.4
		l-1,4l-1.5,5.8l0,0.1l-1,3.8l0,0.2l-0.2,0.9c0,0-0.1,0.6-0.1,0.9c0,1.5,0.9,2.9,2.4,3.4c4,1.4,8.1,2.2,12.4,2.2
		c4.3,0,8.4-0.7,12.4-2.2c1.4-0.5,2.4-1.9,2.4-3.4C50.7,66.1,50.7,65.9,50.6,65.6z M47.1,66.4c-0.6,0.2-1.3,0.4-1.9,0.6
		c-2.9,0.9-6,1.3-9.2,1.3c-3.9,0-7.7-0.7-11.1-2l0.1-0.2l0-0.2l0.9-3.7l0-0.2l1.4-5.6l0.9-3.8l0.1-0.4c2.3,1.1,4.9,1.7,7.6,1.7
		c2.7,0,5.3-0.6,7.6-1.7l0.1,0.4l0.9,3.8l1.4,5.6l0.1,0.4L47,66L47.1,66.4C47.1,66.4,47.1,66.4,47.1,66.4z"/>
</g>
</svg>
